<svg width="20" height="20" viewBox="0 0 20 20" fill="none" xmlns="http://www.w3.org/2000/svg">
<path fill-rule="evenodd" clip-rule="evenodd" d="M7.59102 13.207C11.28 13.207 14.433 13.766 14.433 15.999C14.433 18.232 11.301 18.807 7.59102 18.807C3.90102 18.807 0.749023 18.253 0.749023 16.019C0.749023 13.785 3.88002 13.207 7.59102 13.207Z" stroke="#53545C" stroke-width="1.5" stroke-linecap="round" stroke-linejoin="round"/>
<path fill-rule="evenodd" clip-rule="evenodd" d="M7.59108 10.02C5.16908 10.02 3.20508 8.057 3.20508 5.635C3.20508 3.213 5.16908 1.25 7.59108 1.25C10.0121 1.25 11.9761 3.213 11.9761 5.635C11.9851 8.048 10.0351 10.011 7.62208 10.02H7.59108Z" stroke="#53545C" stroke-width="1.5" stroke-linecap="round" stroke-linejoin="round"/>
<path d="M14.4824 8.88177C16.0834 8.65677 17.3164 7.28277 17.3194 5.61977C17.3194 3.98077 16.1244 2.62077 14.5574 2.36377" stroke="#53545C" stroke-width="1.5" stroke-linecap="round" stroke-linejoin="round"/>
<path d="M16.5947 12.7324C18.1457 12.9634 19.2287 13.5074 19.2287 14.6274C19.2287 15.3984 18.7187 15.8984 17.8947 16.2114" stroke="#53545C" stroke-width="1.5" stroke-linecap="round" stroke-linejoin="round"/>
</svg>
